<svg width="293" height="316" viewBox="0 0 293 316" fill="none" xmlns="http://www.w3.org/2000/svg">
<path d="M280.956 0.308819L93.7855 19.3183C88.3864 19.8808 84.337 24.7175 84.7869 30.1167C85.2368 35.6283 89.9611 39.6777 95.3603 39.3402L283.206 29.6667C284.546 29.5953 285.859 29.2581 287.067 28.6747C288.276 28.0913 289.357 27.2734 290.246 26.2686C291.136 25.2638 291.817 24.0921 292.25 22.8216C292.683 21.5512 292.858 20.2074 292.767 18.8684L291.98 9.53238C291.875 8.1977 291.506 6.89727 290.892 5.70734C290.279 4.51741 289.434 3.46195 288.407 2.60285C287.381 1.74375 286.193 1.09831 284.913 0.704385C283.634 0.310457 282.288 0.175974 280.956 0.308819Z" fill="#E39D89"/>
<path d="M107.621 15.2577C109.112 15.2577 110.543 15.8503 111.598 16.905C112.652 17.9597 113.245 19.3902 113.245 20.8819V184.319C113.245 185.81 112.652 187.241 111.598 188.296C110.543 189.35 109.112 189.943 107.621 189.943C106.129 189.943 104.699 189.35 103.644 188.296C102.589 187.241 101.997 185.81 101.997 184.319V20.8931C101.997 19.4015 102.589 17.971 103.644 16.9162C104.699 15.8615 106.129 15.2577 107.621 15.2577Z" fill="#FCD53F"/>
<path d="M283.093 60.8131L95.1353 56.6513C89.6237 56.4263 85.0119 60.7006 84.7869 66.2123C84.5619 71.6114 88.7238 76.3357 94.1229 76.6732L281.744 90.1711C287.368 90.621 292.317 86.2342 292.542 80.61L292.992 71.274C293.217 65.6499 288.718 60.9256 283.093 60.8131Z" fill="#E39D89"/>
<path d="M135.516 57.8998C135.516 56.4082 134.924 54.9777 133.869 53.923C132.814 52.8682 131.384 52.2757 129.892 52.2757C128.401 52.2757 126.97 52.8682 125.916 53.923C124.861 54.9777 124.268 56.4082 124.268 57.8998V186.917C124.268 188.409 124.861 189.839 125.916 190.894C126.97 191.949 128.401 192.541 129.892 192.541C131.384 192.541 132.814 191.949 133.869 190.894C134.924 189.839 135.516 188.409 135.516 186.917V57.8998ZM158.35 57.8998C158.35 56.4082 157.758 54.9777 156.703 53.923C155.648 52.8682 154.218 52.2757 152.726 52.2757C151.235 52.2757 149.804 52.8682 148.749 53.923C147.695 54.9777 147.102 56.4082 147.102 57.8998V129.326C147.102 130.818 147.695 132.248 148.749 133.303C149.804 134.358 151.235 134.95 152.726 134.95C154.218 134.95 155.648 134.358 156.703 133.303C157.758 132.248 158.35 130.818 158.35 129.326V57.8998Z" fill="#FCD53F"/>
<path d="M205.143 262.337H65.1025L53.9667 302.268C52.167 308.792 57.0037 315.203 63.8652 315.203H206.493C213.242 315.203 218.191 308.792 216.391 302.268L205.143 262.337Z" fill="#165810"/>
<path d="M166.449 283.877H103.684C46.8803 283.877 0.875 237.759 0.875 180.956V162.284C0.875 158.009 4.36196 154.522 8.63629 154.522H261.722C265.996 154.522 269.483 158.009 269.483 162.284V180.956C269.371 237.759 223.365 283.877 166.449 283.877Z" fill="#1E8E3D"/>
</svg>
